<svg id="Layer_1" data-name="Layer 1" xmlns="http://www.w3.org/2000/svg" viewBox="0 0 387.08 389.07"><defs><style>.cls-1{fill:#3cbcee;}.cls-2{fill:#fff;}</style></defs><circle class="cls-1" cx="194.85" cy="195.68" r="178.5"/><path class="cls-2" d="M204.51,192.09c1.62,0,3.33-.36,4.83.06,6,1.67,11.8,4,17.86,5.27,5.29,1.07,10.7,2.38,16.25,1.42a42.48,42.48,0,0,1,6.45-.66,6.85,6.85,0,0,0,6.46-3.74c2.93-5.24,6-10.38,9.05-15.57,1.07-1.84,2-3.73,3.16-5.54,1.35-2.17,1.67-4-.34-6.17-2.84-3.13-5.13-6.76-7.8-10-1.06-1.3-2.49-2.3-4.31-.91a3,3,0,0,1-1.38.52c-5.41.76-10.83,1.44-16.23,2.25-3.24.48-6.43,1.37-9.68,1.67a38.1,38.1,0,0,1-7.84-.24c-2.1-.23-4.14-.91-6.21-1.35-2.41-.52-4.85-.88-7.22-1.52-2.13-.58-3.69-.35-5.29,1.44-4.19,4.69-5.36,10.3-5.82,16.3-.36,4.59-1.1,9.15-1.66,13.72l-1.11.07a7.23,7.23,0,0,1-.92-2.26,108.94,108.94,0,0,1-.14-11c.42-6.28-2.1-11.45-5.51-16.39-1.53-2.22-3.35-2.86-6-1.8a35.16,35.16,0,0,1-5.75,1.36,60,60,0,0,1-7.67,1.58,52.41,52.41,0,0,1-8.3-.25c-.94-.07-1.81-.88-2.75-1-6.58-.83-13.17-1.53-19.75-2.36-2.27-.28-4.52-.82-7.48-1.38-3.15,4-6.71,8.36-10.07,12.89-.5.68-.31,2.23.08,3.16a52.23,52.23,0,0,0,3,5.62c3.22,5.65,6.39,11.32,9.74,16.89,1.51,2.51,3.84,3.69,6.9,4.13,6.49.92,13,1.21,19.32-.27,4.09-1,8.21-1.93,12.27-3.29s8.59-3.53,14.6-2.46c-2.91,1.66-4.76,3.06-6.84,3.82-6.46,2.37-12.89,5.06-19.57,6.52-5.12,1.11-10.6.72-15.92.63a44.54,44.54,0,0,1-8.77-1.35c-3.73-.83-5.7-3.8-7.34-6.88-3.68-6.94-7.19-14-10.81-20.93-1.59-3.05-.84-6.61,1.77-9.25,2.85-2.88,5.52-5.94,8.61-9.28-5.17-1.65-6.5-6.05-8.34-10.2s-3.9-7.83-4.73-12.25c-.39-2.11-2.51-2.74-4.63-3.06a37.89,37.89,0,0,1-12.07-3.69c-5.08-2.63-8.13-6.61-10.28-11.79.89.75,1.79,1.5,2.68,2.27,5.88,5.09,11.88,9.71,20.41,9.07,11.94-.89,23.9-1.52,35.85-2.27,6.26-3.06,13.38-1.77,19.88-3.92,4-1.34,8.46-1.52,12.62-2.56a25.88,25.88,0,0,0,8.09-3.18,12.92,12.92,0,0,0,4.77-7.13c2.2-7,1.83-14.11,2.1-21.23.07-1.92.26-3.84.4-5.76l1,0c.2,1.53.37,3.06.62,4.59.53,3.27,1.16,6.54,1.64,9.82.41,2.79.59,5.61,1,8.39.67,4.06,1.2,8.38,4.93,10.89a28,28,0,0,0,8,3.57c5.39,1.48,10.88,2.57,16.35,3.73,1.45.3,3,.13,4.47.37,2.92.48,5.82,1.09,8.73,1.67a29.14,29.14,0,0,0,3.41.72c12.12.79,24.24,1.49,36.36,2.29,6.49.44,11.81-2.14,16.67-6.09,1.08-.88,2.2-1.72,4.2-3.28-1.32,6.33-5.83,8.63-9.65,10.6-4.14,2.14-9.14,2.63-14,3.88-3.94,8.21-5.47,18.12-14.08,24.89,1.88,2.18,3.75,4.38,5.65,6.55.55.62,1.26,1.09,1.79,1.73,1.36,1.63,3,3.14,3.9,5,1.09,2.37-1.43,3.78-2.34,5.64-2.81,5.71-5.53,11.46-8.37,17.15a65.33,65.33,0,0,1-3.42,5.89,10.89,10.89,0,0,1-8.92,5.08,123.65,123.65,0,0,1-19.44-.11,28.25,28.25,0,0,1-11.64-3.59c-2.2-1.33-4.92-1.77-7.37-2.69-2.83-1.06-5.61-2.21-8.42-3.32Zm-89.23-61.56a14.3,14.3,0,0,0,.65,3.4c2.13,4.21,4.23,8.45,6.66,12.49a8.76,8.76,0,0,0,4.14,3.77,52.86,52.86,0,0,0,9.74,1.85c6.56.88,13.13,1.6,19.7,2.41a4.22,4.22,0,0,1,1.86.61c2.65,1.89,5.67,1.93,8.65,1.59,2.79-.32,5.52-1.12,8.29-1.62,6.2-1.13,12.42-2.25,17,3.84l2.27,3a51.57,51.57,0,0,1,3.6-3.76c1.62-1.37,3.34-3.5,5.11-3.59a47,47,0,0,1,12.28,1.08c4.46,1,9,2.16,13.27.51,6.78-2.65,14-2,20.89-3.8a83.43,83.43,0,0,1,12.25-1.86,4.42,4.42,0,0,0,3.71-2.81c2.84-5.49,5.79-10.92,8.91-16.75a27.15,27.15,0,0,0-3.43-.72c-9.45-.7-18.92-1.2-28.35-2.09-5.23-.5-10.4-1.63-15.6-2.48a1.63,1.63,0,0,1-.47-.16c-4.48-2.18-9.69-1.15-14.27-3.74-3.58-2-8.08-2.42-12.32-3.59-4,10.79-1.72,22.55-2.71,34.25l-5.6-.45c.28-4.58.91-8.71.7-12.79-.3-5.78-1.11-11.55-2-17.29-.18-1.25-1.52-2.32-2.39-3.58C164.38,126.93,140.17,128.73,115.28,130.53Zm78.54-21.46c-1.9,4.43-3.2,8,0,11.63a33.6,33.6,0,0,0,3-5.17C197.8,112.85,195.36,111.52,193.82,109.07Z"/><path class="cls-2" d="M304.3,133.16c0,1.65.44,3.45-.07,4.91-1.93,5.49-.68,11.48-3.33,17-1.59,3.29-1.54,7.37-2.3,11.09-.65,3.22-1.22,6.47-2.13,9.62-1.69,5.82-3.42,11.64-5.47,17.33a118.6,118.6,0,0,1-5.31,12c-2.2,4.52-4.64,8.93-7,13.4-1.27,2.45-2.5,4.92-3.76,7.41,2.26,5.12,4.86,10.2,6.74,15.53a81.76,81.76,0,0,1,3.37,13.95c.87,5.39.33,6.42-3.81,12.27-1.4-1.88-.73-3.92-.69-5.76.2-10.87-3.25-20.73-8-30.26a57.71,57.71,0,0,1-2.19-5.41,65.92,65.92,0,0,1-2.75-7.77c-.43-1.82-.08-3.81-.08-5.73l1-.33c1.3,2.63,2.61,5.25,4.23,8.52,1.16-1.42,2.27-2.35,2.83-3.54,2.34-5,4.65-10,6.73-15.16s4.07-10.33,5.74-15.62c2.07-6.53,4.6-12.91,5.84-19.75.62-3.42,2.37-6.72,3-10.31.94-5.36,2.15-10.68,3.52-15.95a64.67,64.67,0,0,1,3-7.56Z"/><path class="cls-2" d="M86.53,133.69C89.68,148.52,94,163,98,177.62s10.44,28.17,16.37,41.9c2,.86,3.16.41,3.83-1.73a13.47,13.47,0,0,1,3.55-5.8c.14.72.61,1.57.38,2.13-2.35,5.55-2.83,11.61-5.79,17.1-5.54,10.28-8.67,21.37-7.16,33.31a17.68,17.68,0,0,1,0,3c0,.29-.27.56-.55,1.1-2.83-1.79-4.35-4.14-4.21-7.57.17-4-.57-8.21.47-11.94a128.43,128.43,0,0,1,7.38-19.33c1.34-2.88,1.49-4.42-.38-7.32a127.35,127.35,0,0,1-9.13-18.06c-3.19-7.34-6-14.85-8.8-22.34a50.48,50.48,0,0,1-1.72-6.69c-1.7-7.54-3.47-15.06-5-22.63-.89-4.38-1.46-8.83-2-13.28a35.23,35.23,0,0,1,.24-5.7Z"/><path class="cls-2" d="M167,270.82c-5.75.86-8.68-2.45-11.81-5-4.9-4-6-9.58-6.86-15.66-1.38-9.69-2.85-19.49-8-28.22-2.55-4.31-4.53-9-6.65-13.5-.25-.56.21-1.45.48-3a113.35,113.35,0,0,1,10.51,15.41c3.67,6.81,5.09,14.1,6.69,21.5.94,4.36,2.11,8.61,2.48,13.1.14,1.6,1.44,3.29,2.61,4.57C159.54,263.47,162.9,266.71,167,270.82Z"/><path class="cls-2" d="M253.85,206.67c1.43,4.19-1.31,6.23-2.41,8.75-1.93,4.41-4.29,8.65-6,13.15a74.76,74.76,0,0,0-4.39,21.18c-.24,3.38-1,7.18-2.81,9.86-2.5,3.61-6.3,6.34-9.57,9.41-.09.09-.56-.21-1.5-.6.67-1.35,1-3,2-4,5.16-4.86,6.28-11.36,7.23-17.78a97.74,97.74,0,0,1,5.86-21.74A61.3,61.3,0,0,1,253.85,206.67Z"/><path class="cls-2" d="M194,227.1c-2-5.77-1.82-24.92,0-28.85C197.45,207.72,196.9,216.87,194,227.1Z"/><path class="cls-2" d="M193.62,247.66c2.73,7,3.08,14.3,3.71,21.89-3,.07-4.31-1.41-4.46-3.17A66.62,66.62,0,0,1,193.62,247.66Z"/><path class="cls-2" d="M190.59,236.91l2.57-3.16,1.14.59v6.53l-.82.31Z"/><path class="cls-2" d="M115.28,130.53c24.89-1.8,49.1-3.6,72.57-12.29.87,1.26,2.21,2.33,2.39,3.58.86,5.74,1.67,11.51,2,17.29.21,4.08-.42,8.21-.7,12.79l5.6.45c1-11.7-1.33-23.46,2.71-34.25,4.24,1.17,8.74,1.57,12.32,3.59,4.58,2.59,9.79,1.56,14.27,3.74a1.63,1.63,0,0,0,.47.16c5.2.85,10.37,2,15.6,2.48,9.43.89,18.9,1.39,28.35,2.09a27.15,27.15,0,0,1,3.43.72c-3.12,5.83-6.07,11.26-8.91,16.75a4.42,4.42,0,0,1-3.71,2.81,83.43,83.43,0,0,0-12.25,1.86c-6.87,1.84-14.11,1.15-20.89,3.8-4.24,1.65-8.81.46-13.27-.51A47,47,0,0,0,203,154.51c-1.77.09-3.49,2.22-5.11,3.59a51.57,51.57,0,0,0-3.6,3.76l-2.27-3c-4.58-6.09-10.8-5-17-3.84-2.77.5-5.5,1.3-8.29,1.62-3,.34-6,.3-8.65-1.59a4.22,4.22,0,0,0-1.86-.61c-6.57-.81-13.14-1.53-19.7-2.41a52.86,52.86,0,0,1-9.74-1.85,8.76,8.76,0,0,1-4.14-3.77c-2.43-4-4.53-8.28-6.66-12.49A14.3,14.3,0,0,1,115.28,130.53Z"/><path class="cls-2" d="M193.82,109.07c1.54,2.45,4,3.78,3,6.46a33.6,33.6,0,0,1-3,5.17C190.62,117.07,191.92,113.5,193.82,109.07Z"/></svg>