<svg id="Layer_1" data-name="Layer 1" xmlns="http://www.w3.org/2000/svg" viewBox="0 0 378.56 390.96"><defs><style>.cls-1{fill:#ea963f;}.cls-2{fill:#fff;}</style></defs><circle class="cls-1" cx="186.72" cy="196.82" r="180.6"/><path class="cls-2" d="M153.27,217.43l6.49-3.38,0-1.2c-6-2.84-11.88-5.86-18-8.44a56,56,0,0,0-10-2.77c-3.28-.71-6,1-9.55,2.6l3.8,2c-.41.44-.59.84-.82.86-12.9,1.6-22-2.43-28.63-13.93,1.37-1,2.54-1.06,3.86.23,1.61,1.57,3.34,3,5.07,4.45,4.13,3.44,8.45,4.44,13.8,2.41a33.83,33.83,0,0,1,24.82-.18,45.84,45.84,0,0,1,18.35,12.58,5.84,5.84,0,0,0,3.84,1.55c3.65.17,7.33.09,11-.08,11.08-.51,20.41,3.93,29.17,10.08.53.37,1,.84,1.57,1.16,1.25.72,2.53,1.36,4.44,2.38-.09-1.8.16-3.13-.25-4.2-2.55-6.66-1.85-13.49-1-20.25.93-7.26-.42-13.89-2.91-20.77a224.45,224.45,0,0,0-9-20.65c-3-6.21-5.83-12.5-8.94-18.63-.87-1.7-3.51-3-5.57-3.47a39.19,39.19,0,0,1-11.8-4.52c-4.12-2.53-7.1-6.09-9.77-9.91-1.7-2.43-3.73-4.39-6.51-4.83a22,22,0,0,1-7.76-2.74c-4.07-2.33-4.69-3.06-3.75-8.64,2.3,2.75,3.76,5.88,7.11,7.16a23.57,23.57,0,0,0,13.18.91c2.54-.48,3.64-4.53,1.63-5.36-4.87-2-9.1-6.13-15.3-5.06a33,33,0,0,1-3.08-4c-2.46-4.34-2.44-4.39.35-11.65,1.05-2.77,2.42-5.41,3.55-8.14s3.48-3.94,6.34-3.88c4.8.1,9.6.39,14.4.52a11,11,0,0,0,3.41-.48c7-2.15,12.56.12,16.3,6.06a208.51,208.51,0,0,1,15.15,29.56c1.53,3.61,3.33,7.38,7,10a8,8,0,0,1,3.46,7.3c-.54,4.47,1.45,8,3.77,11.39,5.5,8.05,11.14,16,16.74,24,4.08,5.83,8.25,11.62,12.27,17.5,4.59,6.72,9.55,13.24,13.45,20.35s8.27,14.15,9.21,22.53a37.44,37.44,0,0,0,1.16,4.33c.31,1.28.91,2.66.69,3.87a123.3,123.3,0,0,1-3.23,14.52,25.2,25.2,0,0,0,.09,15.06c1.63,5.77,4.72,11.22,3.86,17.66a6.73,6.73,0,0,1-4.41,5.89,28.79,28.79,0,0,1-9.14,1.9c-10.33.27-20.68.46-31,.09-4.59-.17-8.28,1.87-12.16,3.3-12.82,4.72-26,4.94-39.23,3.42-4.51-.52-8.88-3.27-13-5.56-3.92-2.17-7.42-5.1-11.17-7.6a10.78,10.78,0,0,0-2.76-.91c-1.61,4.62-3,9-4.66,13.27-2.51,6.33-6.42,11.55-12.62,14.82a31.68,31.68,0,0,0-3.41,2.69c-1.37,1-1.4,1-4.78.09a22.48,22.48,0,0,1,2.9-3.26c6.89-5.21,12.3-11.49,15.29-19.75.88-2.43,2.43-4.61,3.52-7,1.5-3.24.8-5.36-2.43-6.24-7.56-2.07-14.92-2.31-21.32,3.4a12.67,12.67,0,0,1-3.16,1.45c-.92-2.72,1.22-3.67,2.64-4.75a25.72,25.72,0,0,1,20-5.13,6.34,6.34,0,0,1,2.42.4c4.09,2.69,8.06,5.56,12.16,8.24,5.34,3.49,10.39,7.26,16.67,9.37a56.06,56.06,0,0,0,24.36,2.41,77.11,77.11,0,0,1,9-.45,10.9,10.9,0,0,0,7.78-3.13l-10.82-3.91c1.78-2.38,3.66-2.24,5-1.09,2,1.71,4.28,1.77,6.59,1.77,15.32,0,30.65,0,46-.23,2.26,0,4.5-1.53,7.08-2.46-.23-4.61-.39-8.75-.67-12.87a3.46,3.46,0,0,0-.95-2.17c-4.51-4.05-3.65-9.13-2.29-13.92,1.84-6.48,3.76-12.79,3.73-19.72,0-6.73-2.62-12.6-5.24-18.27a155.42,155.42,0,0,0-12.59-21.44c-7-10.38-14.51-20.44-21.86-30.59-4.19-5.79-8.85-11.27-12.61-17.32-2.68-4.3-6.1-8.5-5.49-14.34a7.48,7.48,0,0,0-2.3-5.72c-5.58-4.5-7.63-11-10.11-17.11a150.41,150.41,0,0,0-13.37-25.48c-2.43-3.74-6.21-3-10-2.45L169.18,99c-2.08,3.61-1.65,5.34,1.76,8.17a17.91,17.91,0,0,0,10.17,4.35c1.34-2.88,1.12-4.9-1.64-6.52-1.62-1-2.9-2.48-5.08-4.41,2-.33,3.2-.9,4.25-.64,2.55.62,4.91,1.26,6.06-3,1.86,3.22,1.36,5.6,1.22,7.75-.33,5.24,2.24,9,5.57,12.58,1.18,1.27,2.3,2.58,3.57,4a3.08,3.08,0,0,1-4.3.46c-2.52-2.06-4.73-4.49-7.07-6.77-.77-.75-1.47-1.93-2.37-2.13-2.77-.63-5.63-.87-8.8-1.31.25,5.73-3.92,8.43-8.78,11,3.36,3.08,6.23,5.82,9.23,8.41a12.69,12.69,0,0,0,3.68,2.19c5.48,2.12,11,4.12,16.52,6.17a9.88,9.88,0,0,1,6.11,6.26c-2.15-.28-2.72-.63-6.28-4.16.23,1.77.09,2.87.53,3.61,2.3,3.88,5,7.56,7.11,11.53,3.79,7,7.52,14,10.83,21.27,1.61,3.52,2.24,7.49,3.29,11.27a19.44,19.44,0,0,1,.76,3.36c.3,3.25,1.41,6.81.51,9.71a34.74,34.74,0,0,0-1.05,15.3c.68,4.76,2.78,9.39,4.72,13.89a90.56,90.56,0,0,0,5.71,10.14c2.05,3.46,4.3,6.82,6.29,10.32.54.95.47,2.26.68,3.4l-1.16.46c-2-2.65-4-5.25-5.92-8-1.77-2.54-3.28-5.27-5.06-7.81-4.1-5.81-10.39-8.88-16.27-12.25-5.53-3.16-11.53-5.53-17.37-8.12a13.85,13.85,0,0,0-4.34-1c-7.46-.72-14.92-1.3-22.42-.37a51.59,51.59,0,0,1-6.58,0ZM173.55,83.34c-6.22-1.57-7.9-.75-9.76,4.39-1.33,3.7-2.72,7.39-4.14,11.06-.59,1.54-1.33,3-2,4.55l5.32,2.42Zm-14.75-.51c-3.16,5.37-6.35,10.64-7.63,16.84,2.75.6,3.56-.49,4.22-2.31,1.14-3.16,2.64-6.2,3.89-9.33C159.94,86.39,160.33,84.66,158.8,82.83Z"/><path class="cls-2" d="M129.29,238.13c-.95,3.26-1.74,5.73-2.38,8.22-1.39,5.4-2.94,10.72-7.18,14.71-1.6,1.51-3.19,3.07-5.89,3.36a6.47,6.47,0,0,1,.75-1.92A23.4,23.4,0,0,0,120,252.31a76.79,76.79,0,0,1,4.69-13.82c1.8-3.94,7.89-6.17,13-5.32a25.81,25.81,0,0,1-2,2.28A22.91,22.91,0,0,1,133,237.2c3.74,2.73,7.06,5.45,10.66,7.73,7.79,4.95,15.69,9.72,23.61,14.46a18,18,0,0,0,5.4,2.24c4.64,1,8.84,3.19,13.69,3.83a194.8,194.8,0,0,0,22.34,1.62,5.86,5.86,0,0,1,3.4,1.13,8.16,8.16,0,0,1-2.41.84c-9,.08-18,.62-26.92-.08a48.33,48.33,0,0,1-20.73-7c-10.21-6-20-12.68-28.37-21.13C132.74,239.91,131.42,239.42,129.29,238.13Z"/><path class="cls-2" d="M228.82,269.73c2.33.54,4.65,1.18,7,1.6,2.16.38,4.49-.39,6.47,1.19C237.48,273.06,232.4,275.18,228.82,269.73Z"/></svg>