<svg id="Layer_1" data-name="Layer 1" xmlns="http://www.w3.org/2000/svg" viewBox="0 0 377.39 377.1"><defs><style>.cls-1{fill:#5eb057;}.cls-2{fill:#fff;}</style></defs><circle class="cls-1" cx="188.53" cy="189.11" r="177.34"/><path class="cls-2" d="M317.76,171.59c-2.38-3-4.46-6.25-7.22-8.79a23.88,23.88,0,0,0-18.13-6.35,6.75,6.75,0,0,1-6.21-2.76c-1.27-1.61-3.06-2.72-5.54-1.77a79.77,79.77,0,0,1-8.63,2.52,4.8,4.8,0,0,1-2.68,0c-6.58-2.4-13.13-4.89-19.68-7.39-6.84-2.6-13.71-5.15-20.5-7.88-7.32-3-13.13-8-18.23-13.88-1.14-1.31-2.06-2.8-3.28-4.48,3.34-1,3.82,2.22,5.89,2.91,2.12-2.16-1-3.58-.88-5.48a45.33,45.33,0,0,0-.3-5.85c-.82.08-1.38,0-1.64.19-7.22,6.09-15.73,7.27-24.75,6.64-11.51-.8-19.44-7.11-25.41-16.47-1.66-2.62-3.36-5.22-5.27-8.19-.47.05-1.33.13-2.19.25-2.32.31-4.25-.26-5.35-2.48-1.18-2.38-2.64-4.71-3.3-7.25s-.42-5.12-.59-7.69c-.31-4.79,1.88-8.22,5.9-11,2.14,1.85,2.26,4.33,2.42,6.64.53,7.36,3.61,13.91,6.87,20.25,2.84,5.52,6.34,10.82,11.27,14.81,5.35,4.33,11.29,7,18.48,7.06a32.77,32.77,0,0,0,20.11-6.44,33.84,33.84,0,0,0,9.24-11.07c5.1-9,4.68-19.14,6.14-28.89.24-1.61.26-3.25.45-5.85,2.87,3.73,1.5,7.09,1.68,10.17s-.33,6.39-.05,9.54c.3,3.31-3.29,5.94-1.49,9.45,6.11-3.06,8.18-16.85,3.28-22.91,1.65-1.23,3.14-1.08,4.11.6s2.35,3.38,2.26,5.74c-.18,4.35.29,8.7-1.69,12.87-1.55,3.24-3.12,6.15-7.17,6.61a3.78,3.78,0,0,0-3.24,2.7,34.09,34.09,0,0,1-3.41,5.73c-1.77,2.68-3.13,5.39-2.79,8.8.42,4,0,8,1.32,12.09,1.71,5.31,5.62,8.22,10,10.17,7.06,3.12,14.57,5.24,21.81,8,4.56,1.73,8.84,4.34,13.5,5.58,3.69,1,7.4,3.65,11.72,1.08a14.93,14.93,0,0,1,7.26-1.91,8.11,8.11,0,0,1,5.49,2.33c2.25,2.5,4.82,2.8,7.77,2.77,5.37-.05,9.61,2.72,13.82,5.63a24.46,24.46,0,0,1,8.56,10,16.79,16.79,0,0,1,.82,3.51ZM150,71.43c-3.25,3.92-3.83,10.39-1.07,15.32,1.1,2,1,5.92,6.15,5.44C151.12,85.71,150.31,78.92,150,71.43Z"/><path class="cls-2" d="M240.87,258.91a28.34,28.34,0,0,1,8.32-22.31c6.88-7,13.89-13.88,20.72-20.93a13.34,13.34,0,0,0,2.66-4.65c1.74-4.77,3.85-9.4,4.12-14.64.13-2.43,1.35-4.8,2.21-7.65,2.14,1.91,1.84,3.84,1.54,5.45-1,5.49-2.35,10.91-3.47,16.37-1,4.65-4.44,7.74-6.9,11.45a30.62,30.62,0,0,1-3.5,3.78c2.67,8.24,7.84,14.3,13.65,20.06a72.52,72.52,0,0,1,9.85,12c1.93,3,1.29,6.84-.1,10.09-2.51,5.86-2.45,12-1.11,17.83.95,4.14,4,7.86,6.42,11.56,1.52,2.31,3.71,4.17,5.46,6.35a42.54,42.54,0,0,1,2.67,4.23l-.68.67c-1.32-.8-2.91-1.35-3.91-2.44-5.32-5.79-10.48-11.72-13.81-19a3.12,3.12,0,0,1-.49-1.23c.06-5.75,0-11.51.33-17.24.11-2,1.2-3.95,1.58-6,.35-1.82-.4-3.23-1.68-4.76-5.35-6.35-10.55-12.84-15.53-19.48a12.83,12.83,0,0,1-3-7.33,3.07,3.07,0,0,0-1.56-2.32c-.6-.23-1.76.5-2.45,1.07-2.5,2.11-4.86,4.38-7.36,6.48-1.62,1.37-3.1,2.62-1.12,4.79a1.61,1.61,0,0,1,.36.82c.69,4.44,1.67,8.87,1.95,13.34.4,6.65-1.2,13.09-3,19.44-.71,2.45-1.41,4.89-2.22,7.3a5.15,5.15,0,0,1-1.32,2.22c-1.65,1.42-1.47,2.79-.21,4.26,6.54,7.62,5.4,16.55,4,25.67a7.1,7.1,0,0,1-.77-1.66,66.76,66.76,0,0,1-1.39-8.51c-.39-6.88-4.2-11.89-8.72-16.49-2.07-2.12-4.14-4.15-5.23-7a10.09,10.09,0,0,1,.07-8.06c3,4.09,3.2,9.58,8.41,11.94.65-.77,1.77-1.54,2-2.54a103.26,103.26,0,0,0,3-13.58c.74-6.3,1-12.68,1.18-19a10.43,10.43,0,0,0-2.75-8c-.26.68-.47,1.38-.78,2-2.27,4.8-5.08,9.36-6.13,14.67-.07.33-.92.49-1.41.73Z"/><path class="cls-2" d="M113,227.51c-1,1.58-2.11,2.51-2.18,3.52-.41,5.83-4.64,9.51-7.67,13.77a105.79,105.79,0,0,1-10,11.85c-3.06,3.19-2.65,6.42-1.87,10.32,1.81,9,3.18,18.3-2.58,26.57a161.77,161.77,0,0,1-10.38,12.75c-.88,1-2.35,1.51-3.73,2.36-.81-2.84,1-4.33,2.42-5.64,3.94-3.71,6.28-8.48,9.21-12.88,4.31-6.45,2.39-13.4,2-20.2-.1-1.69-1.43-3.27-1.92-5-1.4-4.85,1.4-8.38,4.18-11.71,4.1-4.9,8.34-9.71,12.74-14.34,3-3.2,4.84-7.06,6.77-10.89,1.13-2.25-.37-4-1.66-5.23-4.25-4.15-7.8-8.7-8.92-14.63-.92-4.89-1.41-9.87-1.93-14.83-.07-.7.74-1.5,1.3-2.53,2.06,1.48,1.6,3.45,1.66,5.09a32.28,32.28,0,0,0,5.83,18.05c3.19,4.44,7.32,8.22,11.16,12.19,4.27,4.41,9.06,8.38,12.89,13.13,3.14,3.9,4.78,8.85,5.95,13.8.61,2.58,1,5.22,1.62,8.48-2.59-2.13-3-4.48-3.86-6.8-1.63-4.38-4.11-8.45-6.35-12.87-.73.56-1.31.78-1.32,1-.31,5.58-1,11.19-.68,16.74a160.15,160.15,0,0,0,2.63,18.84c.38,2.09,1.73,4,2.6,5.95,6.18-1.75,5.92-7.77,8.54-12.67,1.69,3.64,1.72,6.58.46,9.05a27.43,27.43,0,0,1-5.46,7c-4.79,4.62-8.13,9.74-8.46,16.66-.16,3.33-1.22,6.63-1.88,9.94l-1-.05a11.94,11.94,0,0,1-.74-2.26c-.16-1.2,0-2.43-.18-3.64-.79-7,1.23-13.34,4.86-19.17a4.92,4.92,0,0,0,.71-4.62c-1.18-3.35-2-6.92-3.76-9.93s-1.5-6.08-2.12-9.14c-1.49-7.31.12-14.51.52-21.76a4.67,4.67,0,0,1,.25-1.34c1.51-4.06,1.48-4-1.7-7.09C118.38,233.06,116,230.57,113,227.51Z"/><path class="cls-2" d="M170.88,118.75c-4.09,6.13-8.17,10.86-13.36,14.77a62,62,0,0,1-12.29,6.94c-4.48,2-9.09,3.71-13.71,5.38-6.57,2.37-13.21,4.57-19.81,6.88a21.41,21.41,0,0,1-2.88,1.27,11.4,11.4,0,0,1-4.34.22,54.33,54.33,0,0,1-8.22-2.35,4.28,4.28,0,0,0-5.5,1.81A6,6,0,0,1,85,156.38c-6.48-.18-12.58,1.26-17.48,5.65-3.14,2.8-5.72,6.23-8.6,9.45,0-.5-.39-1.41-.11-2a28,28,0,0,1,15.39-15,34.56,34.56,0,0,1,10.88-2.2,8.64,8.64,0,0,0,3.5-1.65c1.26-.8,2.3-2,3.61-2.66a5.59,5.59,0,0,1,3.28-.66,21.79,21.79,0,0,1,6,1.68c5.13,2.49,9.5.32,14-1.79,1.89-.89,4-1.33,6-2.05,9.32-3.45,18.73-6.68,27.89-10.53a15.65,15.65,0,0,0,8.89-8.74c2.23-5.35,2.7-10.7,2.95-16.42,2.27-.27,3.09.88,3.13,2.79.07,3.59.69,7.27-1.43,10.58-.11.16.14.54.22.83C166,123.07,166.9,119.16,170.88,118.75Z"/><path class="cls-2" d="M189.93,168.63a12.6,12.6,0,0,1,.63,2.43,753.64,753.64,0,0,1-.12,91.79c0,.5-.51,1-1.19,2.2a21.36,21.36,0,0,1-1-3.44C186.81,245.94,187.58,172.84,189.93,168.63Z"/><path class="cls-2" d="M161.7,177.66c.3,1.62.74,2.49.54,3.18-.9,3.15-1.93,6.27-3,9.36a63.52,63.52,0,0,1-2.54,6.23c-2.06,4.31-4,8.7-6.41,12.81-4,6.76-14.53,9.9-21.89,6.52a10.48,10.48,0,0,1,1.79-.56c8.11-.86,14.34-3.92,18.36-11.85,3.32-6.56,6.86-13,9.55-19.83C158.81,181.68,160.17,180.09,161.7,177.66Z"/><path class="cls-2" d="M247.59,216.65c-5.54.73-11,1.18-16-2.7-4.45-3.48-7.19-8-9.52-13.14a177.83,177.83,0,0,1-7.19-19.09,10.89,10.89,0,0,1,0-3.18l1.2-.3c2.19,4.76,4.41,9.5,6.57,14.28C225.45,198.73,228.33,205,233,210c2.71,2.94,6.86,4.05,10.81,4.92,1.31.28,2.66.33,4,.48C247.69,215.83,247.64,216.24,247.59,216.65Z"/><path class="cls-2" d="M189.43,292.43c.48.65,1.16,1.15,1.23,1.72.53,4.66,1.08,9.32,1.33,14a14.86,14.86,0,0,1-1,5.29c-.24.69-1.29,1.11-2.17,1.82C187.13,309.22,187.54,295.69,189.43,292.43Z"/><path class="cls-2" d="M153.61,262.51c5.63-5.73,12.73-8.39,15.46-15.69,2.12,1.66,1.87,3.4,1,4.68-3.47,4.88-7.55,9.13-13.5,11A14,14,0,0,1,153.61,262.51Z"/><path class="cls-2" d="M206.46,247.35l15.86,14.44c-2.68.82-6.16-.43-10.1-4.16C209.35,254.9,206,252.22,206.46,247.35Z"/><path class="cls-2" d="M203.81,290.75c-1.84-3.81.42-6.22,2.4-8.64a14.73,14.73,0,0,1,3.36-2.82c2.05-1.35,4.2-2.54,6.37-3.84,1.19,2.65-.74,4.08-2.37,5.48-1,.86-2.46,1.19-3.45,2.05a34.35,34.35,0,0,0-3.82,4.17C205.38,288.28,204.63,289.55,203.81,290.75Z"/><path class="cls-2" d="M160.9,275.16c3.06,2,6,3.7,8.59,5.77,3,2.4,5.86,5.1,4.46,10.1-.68-.49-1.32-.7-1.46-1.1-1.54-4.19-4.85-6.61-8.46-8.81C161.49,279.57,161,278.5,160.9,275.16Z"/><path class="cls-2" d="M240.77,258.81c-.24.75-.47,1.49-.8,2.51-1.35-1.87-.16-2.11.9-2.41Z"/><path class="cls-2" d="M150,71.43c.34,7.49,1.15,14.28,5.08,20.76-5.11.48-5.05-3.47-6.15-5.44C146.14,81.82,146.72,75.35,150,71.43Z"/></svg>