<svg id="Layer_1" data-name="Layer 1" xmlns="http://www.w3.org/2000/svg" viewBox="0 0 371.12 379.1"><defs><style>.cls-1{fill:#9d5096;}.cls-2{fill:#fff;}</style></defs><circle class="cls-1" cx="184.29" cy="190.34" r="174.51"/><path class="cls-2" d="M215.69,135.3c-5.55.19-8.49-3.59-11-7.61-2.19-3.5-3.88-7.31-6.09-11.55-2.27,6.72-4.32,12.81-6.44,18.89a7.51,7.51,0,0,1-1.68-.13c.46-4.08-.19-8,2.27-11.92,2.22-3.54,2.94-8,4.56-12a54.61,54.61,0,0,1,3.43-6.15l1.05.14c.07,1.54,0,3.1.22,4.62a30.26,30.26,0,0,0,1.16,5.77c1.07,3,3.37,4,6.59,5,7.12,2.1,14.57,3.48,20.9,8,5.25,3.79,11.09,6.8,16.74,10a13.25,13.25,0,0,0,4.15,1.42c4.55.84,9.33,1,13.66,2.42,8.43,2.85,16.37,6.62,23.11,12.9,7.62,7.1,11.75,15.75,15,25.43,1.75,5.23,1.88,10.69,3.77,15.8a15.31,15.31,0,0,1,.47,5c.09,5.49.43,11,.06,16.49-.5,7.55.07,14.78,3.46,21.69.7,1.43.66,3.23.91,4.87.59,3.77,1.36,7.52,1.66,11.32a47.59,47.59,0,0,1-.16,9.84c-.34,2.72-1.46,5.33-2.48,8.81-1.89-4.4-.9-8.22-1.11-11.9s.15-7.69-.27-11.48a80.78,80.78,0,0,0-2.3-11c-.94-3.65-2.14-7.23-3.08-10.33.54-1.76,1.35-3.21,1.36-4.66q0-7.74-.42-15.49a35.17,35.17,0,0,0-1.32-5.8,18.32,18.32,0,0,1-.87-3.84c0-7.22-1.91-14.14-4.43-20.71-3.68-9.57-9.12-17.94-18.13-23.82a64.84,64.84,0,0,0-31.68-10.89c-3.73-.25-6.24-3.24-9.21-5.13-5.1-3.22-9.94-6.91-15.26-9.69s-11.07-4.68-16.77-7c-2.1,3.39.9,4.89,2,6.5,1.4,2,3.89,3.27,5.84,4.94.28.23.17.91.24,1.38Z"/><path class="cls-2" d="M68.41,273.23a38.79,38.79,0,0,1-.61-4.64c-.06-5.33,0-10.66,0-16,0-1-.12-2.27.41-2.93,2.73-3.38,1.22-6.16-.75-9.17-4.17-6.36-6.21-13.55-8.5-20.75a84.68,84.68,0,0,1-4-31.27c.87-14,5.46-26.52,17-35.57a39.5,39.5,0,0,1,11.41-6.36c.16-.06.38,0,.49-.1,6-5.24,14.18-3,20.74-6.25,8.53-4.25,17.9-6.84,25.41-13.08a22.5,22.5,0,0,1,3.9-2c3.19-1.68,4.81-4.13,4.52-8a83.32,83.32,0,0,1,.21-9.47c0-.29.32-.56.5-.83,1.73,2.11,2,3.66,1.89,10.58-.16,7.23-.35,14.48-6.45,20.26-2.52-3.83,2.76-6.8.88-10.17-6.55,4.16-13,8.61-19.73,12.41-4.65,2.61-9.79,4.33-14.73,6.41a5.07,5.07,0,0,1-2.41.57c-7.11-1-12.1,4-18,6.44-6.1,2.53-10.58,7.33-14.16,12.92-4.75,7.43-6.35,15.65-6.88,24.34s.94,17,2.5,25.23a56.89,56.89,0,0,0,8,20.85,16.94,16.94,0,0,1,1.48,16.12,15.58,15.58,0,0,0-.86,4.87c-.22,4-.23,8-.42,12a26.67,26.67,0,0,1-.68,3.59Z"/><path class="cls-2" d="M258.22,273l-4.2-7.28c-2.77,3.5-3.61,7.83-8.09,9.84-.32-2.74-.41-4.47,1.2-6.48s2.52-4.93,3.44-7.54c1.08-3-1.22-5.26-2.81-7a15.69,15.69,0,0,1-4.21-11.25c.07-6.28-.78-12.65,1.87-18.69.3-.69,0-1.63,0-3.28a52.11,52.11,0,0,0-4.08,4.36c-5.58,7.65-12.34,13.89-21.08,17.73-5.26,2.3-10.46,5.27-16,6.28-6.6,1.21-13.53,1.53-20.22-.73-3.44-1.17-7.09-1.7-10.54-2.85-7.7-2.55-15.48-5-22.32-10.7,1.1-.31,2-.94,2.67-.71,2.89,1,5.66,2.39,8.52,3.52a49.35,49.35,0,0,0,6.52,2.27c4.34,1,8.71,2,13.1,2.73,4.7.81,9.55,2.35,14.15,1.84,9.07-1,17.94-2.86,26.1-7.89a98.21,98.21,0,0,0,21-17.74,54.5,54.5,0,0,0,4-5.81c.59,1.61,1.23,2.55,1.23,3.49,0,5.66.29,11.37-.36,17-.91,7.8.92,14.38,5.41,20.89,3.07,4.46,5.95,9.51,6.09,15.36a13.61,13.61,0,0,1-.35,2.35Z"/><path class="cls-2" d="M236.49,148a29.08,29.08,0,0,0-4.8.72c-6.52,2.07-13.24,2.72-20,3.22-3.46.26-6.89.9-10.32,1.43-3.09.47-6.16,1.13-9.26,1.49s-6.3.57-9.46.69c-5.32.19-10.65.39-16,.35-4.53,0-7.83,1.85-10.67,5.29a85.92,85.92,0,0,1-7.14,7c-4.48-1.43-7.09-4.53-9.49-7.55-2.59-3.25-5.39-5.16-9.66-4.85-2.65.19-5.35-.3-8-.08-5.43.45-10-2.5-15.18-4a20.35,20.35,0,0,1,3.08-.42c8.15.07,16.31.08,24.46.41a8.66,8.66,0,0,1,4.72,2.25c2.33,2,4.33,4.41,6.51,6.61s2.5,2.09,4.9-.49c2.09-2.25,4.08-4.72,6.56-6.45a14.78,14.78,0,0,1,6.83-2.39c4.46-.41,9,0,13.48-.34,4.79-.36,9.54-1.18,14.31-1.8.49-.06,1-.21,1.48-.24,13.08-.85,26.17-1.7,39.26-2.48a29.66,29.66,0,0,1,4.29.35Z"/><path class="cls-2" d="M101.16,244.37c-.11,6.7-.83,12.77.63,18.81a32.5,32.5,0,0,1,.43,12.63A13.76,13.76,0,0,1,99,268.25c-.59-4.26-1.15-8.52-1.64-12.79a9.26,9.26,0,0,1,.31-2.43c.54-3.58,1.1-7.16,1.6-10.43-6.06-5.12-9.4-11.18-11.82-18.12a59,59,0,0,1-3.67-22.85c.39-7.22.79-14.49,3.72-21.32.62-1.46.59-3.19,1-5.95.78,1.61,1.32,2.2,1.31,2.79,0,2.66.15,5.4-.43,7.95a67.58,67.58,0,0,0,.9,33.56c1.92,6.87,4.14,14.26,10.92,18.57,2,1.31,4.09,2.93,6.36,3.53a38.06,38.06,0,0,0,10.83,1.5,51.3,51.3,0,0,0,18-3.54,27.5,27.5,0,0,0,3.8-2.39c1.27,3.08-1.27,4-2.54,4.65-10.09,5.14-20.66,7.53-31.93,4.39C104.56,245.06,103.42,244.87,101.16,244.37Z"/><path class="cls-2" d="M144.56,223c-6.46-14.35-5.57-28.36,1.88-42.17.13,1.21.59,2.48.34,3.61C143.93,197.13,144.88,210.08,144.56,223Z"/><path class="cls-2" d="M145.47,275.43c-.63-2.61-1.22-5.24-1.9-7.83-1-3.62-2.21-7.18-2.94-10.84-1-5.15.45-9.89,3.84-15.34a53.25,53.25,0,0,1,.26,5.45A48.73,48.73,0,0,0,146.3,264c1,3.48.19,7.48.19,11.25Z"/><path class="cls-2" d="M215.58,135.41l4.29.72c-2.91,1-2.91,1-4.18-.83Z"/></svg>