<svg id="Layer_1" data-name="Layer 1" xmlns="http://www.w3.org/2000/svg" viewBox="0 0 389.07 391.07"><defs><style>.cls-1{fill:#da418e;}.cls-2{fill:#fff;}</style></defs><circle class="cls-1" cx="199.6" cy="202.99" r="177.79"/><path class="cls-2" d="M199.22,303.43a47.49,47.49,0,0,1-.53-5.16c0-5.5.13-11,.21-16.5a11,11,0,0,1,.14-2c1.28-6.49,2.42-13,3.92-19.45,2.19-9.41,4.58-18.78,7-28.13.74-2.84,2.07-5.52,2.86-8.35,1.38-4.93,2.13-10.07,3.9-14.85,3.25-8.73,2.79-17.7,1.95-26.55a54.87,54.87,0,0,0-8.22-24c-2.4-3.85-4.43-7.92-6.58-11.93a4.22,4.22,0,0,1-.36-2,128.17,128.17,0,0,1,.68-13.94c2,1.55,1.36,3.73,1.5,5.63.32,4.23-.16,8.64,3.68,12.44.15-1.42.33-2.46.34-3.51,0-4.67,0-9.33.08-14a20,20,0,0,1,1.72-8.68c1.37-2.93,1.45-6.43,2.55-9.52a138.72,138.72,0,0,1,5.41-13c3.06-6.43,5.81-12.87,6.25-20.13.37-6,1-11.9,1.59-17.85a6.3,6.3,0,0,1,1.39-3.47,9.16,9.16,0,0,1,1,2.8c.12,7.49.78,15-.06,22.44-.62,5.42-3,10.72-5.07,15.88-2.19,5.46-5.13,10.62-7.38,16.07a33.75,33.75,0,0,0-2.26,9.09c-1,8.73-1.69,17.49-2.39,26.25-.17,2.1.65,3.92,1.57,6,2.61,5.81,5.28,11.61,7.43,17.68,3.33,9.42,2.14,18.69,1.78,28-.17,4.52-1.93,9-3.2,13.44-2.47,8.66-5.08,17.3-7.68,25.93-.85,2.81-2.08,5.53-2.79,8.37-1.42,5.77-2.42,11.65-3.94,17.39a139.59,139.59,0,0,0-4.38,32.85,12.57,12.57,0,0,1-.66,2.69Z"/><path class="cls-2" d="M205.13,317.89c2.06-1.29,3.59-.09,5.45.8,5.11,2.45,10.44,4.44,15.62,6.75,3.43,1.53,6.72,3.36,10.13,4.92a6.9,6.9,0,0,0,3.1.47c2.48-.12,5-.69,7.43-.6,3.4.13,4.73,3.16,3.67,6.55-1.39,4.44-3.53,8.17-8.12,9.65-2.28.73-5.25,1.5-7.2.65-5.53-2.42-10.79-.8-16.18-.17-7.26.84-14.64,2.77-21.82.72a39.69,39.69,0,0,0-20.89-.64c-6.87,1.63-12.68-1.82-16.09-8a9.67,9.67,0,0,1,.14-9.57c3.72-6.45,7.68-12.76,11.43-19.19a7.72,7.72,0,0,0,.88-3.71c0-8,.32-16-.29-24s-2.28-15.67-3.27-23.54c-.49-4-1.3-8-.14-12,.56,0,.85,0,.86.07,1.07,4.93,2.42,9.83,3.09,14.82,1.17,8.71,2,17.48,2.82,26.24.43,4.47.57,9,1,13.45.58,6.6-1.56,12.27-5.29,17.64a108.76,108.76,0,0,0-6.59,11.44c-2.14,4.09-.5,8.4,3.64,10.42,3.33,1.62,6.22,2.27,10.23.83,5.52-2,11.43-2.15,17.25,1.09,2.78,1.55,6.85,1.36,10.25,1.06,7.08-.62,14.09-1.9,21.15-2.78,2.6-.32,5-.26,7.5,1.49,3.07,2.16,8.61-.28,10.86-4.25a41.31,41.31,0,0,0,1.62-3.83c-2.52,0-4.59-.07-6.65,0a13.16,13.16,0,0,1-7.54-1.67c-7.25-4.08-14.84-7.55-22.24-11.39a58.12,58.12,0,0,1-5.65-3.8Z"/><path class="cls-2" d="M192.71,158.37c-1.24-.34-2.49-.65-3.72-1-5.94-1.85-12.11-2.39-17.1,1.6A21.56,21.56,0,0,0,164,172.19c-1,5.87-1.71,11.79-2.51,17.69-.56,4.08-1.83,8.24-1.43,12.23.94,9.15,1.68,18.47,5.68,27,2.06,4.38,4.45,8.66,8.63,11.59,2.92,2,4,2.25,6-.74,2.7-4,5-8.36,7.28-12.64,2-3.68,3.7-7.49,5.6-11.21.18-.35.86-.45,1.31-.67l-.14-.12a5.7,5.7,0,0,1-.71,5.63c-.67.86-.75,2.14-1.21,3.19-3,6.84-5.48,14-10.47,19.76-2.86,3.33-4.69,3.61-8.56,1.42-1.28-.72-2.58-1.41-3.9-2.12l-2.13,1.37c-2-5-3.61-10-6-14.6-4.59-8.92-5.12-18.67-6.32-28.27-.36-2.88.46-5.92.84-8.87s1.07-5.9,1.29-8.87a50.78,50.78,0,0,1,7.27-22.69c.92-1.53,1.75-2.75.62-4.43l-.12.09c3.36-1,6.88-1.71,10-3.17,4-1.86,7.61-2.32,11.43.31,1.67,1.15,3.71,1.77,5.49,2.78.37.21.35,1.1.51,1.68Z"/><path class="cls-2" d="M183.44,135.51c-1.11-3.52-2.38-6.4-2.9-9.42-1.21-7-4.17-13.61-3.83-20.9.25-5.49,0-11,.11-16.49.05-4.49.13-8.9,1.79-13.27,1.08-2.85,1-6.12,2.45-9.35a16.56,16.56,0,0,1,.7,3.28c0,6.16-.11,12.33-.13,18.49,0,6.34-.06,12.67.05,19,.07,4.28.14,8.47,1.63,12.72s1.52,9.12,2.44,13.65a7.78,7.78,0,0,0,2.19,3.52c2.24,2.28,4.16,4.62,4.81,7.9a26.86,26.86,0,0,0,2,4.93c-3.79,2-3.74-1.46-4.95-3-1.4-1.79-2.81-3.56-4.29-5.42-4.09,1.28-5,6.72-9.91,7.11C176.22,142.44,180.24,139.08,183.44,135.51Z"/><path class="cls-2" d="M165.25,156.8c-4.68-7.34-4.34-15-2.19-23.13,2-7.62,1.65-15.35-2.16-22.68a221.75,221.75,0,0,1-10.47-23c-3.58-9.35-1.55-18.61-1.51-27.93,0-1.73.88-2.81,3.39-2.6-.12,1.59-.18,3.18-.36,4.75-1,8.86-.4,17.56,2.93,25.91,1.51,3.77,3.35,7.41,5.06,11.1,2,4.31,3.64,8.88,6.17,12.87,3.41,5.37,3,11.1,2.38,16.77-.39,3.65-2,7.21-3.32,10.72a15.14,15.14,0,0,0,0,11.1c.67,1.82.06,4.1,0,6.18Z"/><path class="cls-2" d="M196,303.34c3.79,2.65,4.55,6.7,5.87,10.24,1.06,2.85-2.25,3.73-3.8,5.14s-6.3.72-8.28-.87c-2.32-1.88-2.48-3-.9-7.51,2.54,1,2.9,6.45,7.42,3.4C198.43,310.57,192.94,307.4,196,303.34Z"/><path class="cls-2" d="M205.25,317.81c-.4-.26-.94-.42-1.18-.78a3,3,0,0,1-.51-1.67c0-.21.9-.69,1.11-.57a2.22,2.22,0,0,1,1.08,1.31c.07.56-.37,1.18-.6,1.78Z"/><path class="cls-2" d="M192.6,158.49c.61.11,1.37,0,1.79.4s.06,1.05.06,1.61a4.34,4.34,0,0,1-1.46-.72c-.27-.31-.2-.93-.28-1.41Z"/><path class="cls-2" d="M194.64,215.4l1.16-2.63c1.08,1.81,0,2.22-1.29,2.51Z"/></svg>