<svg id="Layer_1" data-name="Layer 1" xmlns="http://www.w3.org/2000/svg" viewBox="0 0 367.13 371.12"><defs><style>.cls-1{fill:#f1e84c;}.cls-2{fill:#fff;}</style></defs><circle class="cls-1" cx="181.51" cy="187.74" r="169.77"/><path class="cls-2" d="M94.84,226.51c-1.67.37-3,.54-4.29,2.44C85,237,84,246.06,84.07,255.32a54.46,54.46,0,0,0,4.26,21.77,4.83,4.83,0,0,1,.35,2c-.25,8.45-.52,16.9-.8,25.59-3-.59-3.09-2.52-3.13-4.3q-.16-7.74-.14-15.49c0-3,0-5.7-1.86-8.51-1.65-2.47-2.14-5.83-2.73-8.87a95.21,95.21,0,0,1-1.72-12.78c-.12-2.22,1-4.47,1.3-6.74a39.07,39.07,0,0,1,1.84-8.64,66.42,66.42,0,0,1,8.12-15.43,6,6,0,0,0,.87-5.87c-.94-2.92-2.85-5.66-3.22-8.61-.72-5.87-2.78-11.68-1.19-17.76.91-3.49,1.27-7.14,2.18-10.63,2.39-9.17,7-17.2,12.83-24.6a76.08,76.08,0,0,1,6.36-7.3c5.73-5.64,13-8.3,20.42-11.1s15-2.26,22.53-2.53a22.09,22.09,0,0,0,5.82-1c4.67-1.47,9.24-3.28,13.94-4.68a9.34,9.34,0,0,1,4.92,0,80.38,80.38,0,0,1,8.67,3.17c2.1.85,3.64.48,5.27-1.22,6.56-6.84,14.85-11.16,23.21-15.28,7.86-3.87,16-7.22,23.86-11,3.91-1.88,7.11-4.25,7.13-9.55,0-6,1.13-11.9,1.43-17.87a13.21,13.21,0,0,0-1.48-5.54c-1.5-3.44-3.32-6.74-4.84-10.18-.31-.71.15-1.77.39-3.78,1.67,1.9,3,2.9,3.63,4.22C246.75,72.22,254,79,262.39,84.75a116.85,116.85,0,0,1,12.38,10c2.74,2.51,5.37,4.73,9.48,4.06.72,2.72-.38,3.67-2.65,3.53-3.93-.26-7.31-2-10.39-4.27-4-3-7.95-6.14-11.9-9.23l-10-7.76-.46,4.22c-.64,5.94-.75,12-2.07,17.79a29.79,29.79,0,0,1-7.52,13.34c-2.05,2.2-4.44,4.09-7,6.41-1.17-2.34-.64-3.61.75-5.14a62.1,62.1,0,0,0,4.71-6.57l-.74-.88c-3.68,2-7.28,4.1-11.06,5.82-5.22,2.37-10.55,4.49-15.89,6.59a73,73,0,0,0-16.13,9.09,18.2,18.2,0,0,0-2.59,3.09c7.45,1.35,14.09,2.41,20.67,3.76,4.81,1,9.54,2.4,14.33,3.56,3.19.78,6.41,1.48,9.62,2.17,3.86.83,7.77,1.41,11.55,2.48a79.88,79.88,0,0,1,8.71,3.43c2.53,1.05,5,2.21,7.57,3.2a8.5,8.5,0,0,0,2.61,0c-3-7.17-5.8-14-8.8-20.64s-5.53-13.16-5.51-20.51c8.88,13.23,13.61,28.24,18.92,43.1,1.2.17,2.16.27,3.11.47.73.15,1.43.41,2.14.63l-.06,1c-2.19,0-4.51.46-6.55-.09C264,156,258.46,154,252.86,152.22c-2.18-.68-4.42-1.18-6.64-1.73-4.94-1.22-9.86-2.53-14.83-3.59q-9-1.92-18-3.46c-6.5-1.11-13.06-1.9-19.56-3a47.2,47.2,0,0,1-12.72-3.63,18.27,18.27,0,0,0-16.72,0c-4.3,2.18-8.69,3.78-13.58,3.7-3,0-6,0-9,0-8.67-.12-16.7,2.82-24,6.77a36.63,36.63,0,0,0-14.4,13.61c-2.35,4.05-5.5,7.66-7.66,11.79a74.38,74.38,0,0,0-4.54,12.06,73,73,0,0,0-2.34,10c-1.1,6.78,2,12.94,3.12,19.4.72,4.19,3.47,7.93,2.78,12.43Z"/><path class="cls-2" d="M165.12,230.15c4,12,4,24.19,1.64,36.85a82.15,82.15,0,0,0,27.69,23.14,63.59,63.59,0,0,0-.85-6.32c-1.69-6.85-3.54-13.66-5.29-20.5a16.87,16.87,0,0,1,.36-10.35,54,54,0,0,1,3,6.8c2.55,8.66,4.56,17.5,7.44,26.05,2.08,6.15,5.21,11.95,7.86,17.92,1.52,3.45,3,6.9,4.48,10.39.21.52-.09,1.26-.23,2.75-2.39-2.8-4.61-4.86-6.16-7.33-2.42-3.84-4.3-8-6.59-11.93a7.06,7.06,0,0,0-3.06-2.9c-6.16-2.53-12.38-4.93-17.6-9.2-3.89-3.18-7.59-6.58-10.11-11.08-.67-1.19-2-2-3.38-3.34-3.5,6.72-6.88,13-10.06,19.4a14.44,14.44,0,0,0-1.53,5.59c-.23,4.82-.07,9.65-.14,14.48,0,1.38-.3,2.76-.52,4.73-1.7-2.05-3.81-8.28-4.05-11-.53-5.84-.29-11.64,2.05-17.08,1.47-3.43,3.46-6.63,5.16-10,1.9-3.73,3.56-7.61,5.67-11.22,3.2-5.47,2.81-11.43,2.86-17.34.05-4.66-.11-9.32-.12-14,0-1.57.16-3.13.25-4.7Z"/><path class="cls-2" d="M284.62,256.3c-5.15.83-9.88,2.89-15.12,3.82-13.95,2.48-27.89,1.71-41.82,1.22-8.57-.3-16.3-3.75-23.7-8.42-7.14-4.52-11.76-11-16.92-17.25-3.37-4.09-6.94-8.34-12.67-9.5-.57-.11-1-.7-1.92-1.35a5.72,5.72,0,0,1,6.67-.24,56,56,0,0,1,13.7,12.32c6.38,7.8,14.25,13.9,23.8,17.28a43.89,43.89,0,0,0,13.16,2.34q16.24.47,32.49,0c5.77-.19,11.51-1.42,17.27-2a28.84,28.84,0,0,1,5.06.31Z"/><path class="cls-2" d="M261,303.72c-.27-1.92-.69-2.87-.46-3.64,1.26-4.23,2.63-8.42,4.06-12.59a19.22,19.22,0,0,1,9.29-10.88c2.83-1.58,5.71-2.15,8.66-2.87,1.84-.45,2.38.51,2.2,2.14a67.88,67.88,0,0,0-7.27,2.63c-7.51,3.69-11.13,10.31-12.72,18.12C264.19,299.18,263.15,301.07,261,303.72Z"/><path class="cls-2" d="M210.6,276.78l8.48,2.87c3.71,1.25,7.4,2.57,11.14,3.73,2.22.69,2.25.57,3.33,3.45C226.5,289.21,214.69,284.7,210.6,276.78Z"/><path class="cls-2" d="M211.56,294.8c.57-.29,1.22-.92,1.62-.79,6.88,2.31,13.73,4.71,21,7.24C227.39,305.37,216.73,302.14,211.56,294.8Z"/><path class="cls-2" d="M94.73,226.62c2,.57,2.84,1.62,2.45,3.26l-1.5.54-.84-3.91Z"/></svg>